# xmcd
#
# Track frame offsets: 
#        150
#        12577
#        32808
#        58634
#        70884
#        80493
#        100176
#        118010
#        129441
#        147970
#        160790
#        177718
#        191482
#        205751
#        222082
#        256801
#        288396
#        293996
#
# Disc length: 3977 seconds
#
# Revision: 0
# Processed by: cddbd v1.5.2PL0 Copyright (c) Steve Scherf et al.
# Submitted via: ExactAudioCopy v0.95b4
#
DISCID=100f8712
DTITLE=THE STADACONA BAND OF CANADIAN FORCES ATLANTIC - HEART OF OAK F
DTITLE=ANTASY
DYEAR=1900
DGENRE=COUNTRY
TTITLE0=SEAPOWER FANFARE
TTITLE1=HEART OF OAK FANTASY
TTITLE2=VARIANTS ON A NAUTICAL HYMN
TTITLE3=PICCS AHOY (PICCOLA DUET)
TTITLE4=RUM AND COCA COLA
TTITLE5=ROUND THE HORNPIPE
TTITLE6=THE LAST SHANTY
TTITLE7=SAILOR'S HORNPIPE
TTITLE8=SONG FOR THE MIRA
TTITLE9=BEER BARREL POLKA
TTITLE10=IRISH TUNE FROM COUNTY DERRY
TTITLE11=TALES OF THE PHANTOM SHIP
TTITLE12=IF EVER YOU WERE MINE
TTITLE13=MARY ELLEN CARTER
TTITLE14=SONGS OF SAILOR AND SEA
TTITLE15=NONE SO BEAUTIFUL
TTITLE16=O CANADA
TTITLE17=HEART OF OAK
EXTD=
EXTT0=
EXTT1=
EXTT2=
EXTT3=
EXTT4=
EXTT5=
EXTT6=
EXTT7=
EXTT8=
EXTT9=
EXTT10=
EXTT11=
EXTT12=
EXTT13=
EXTT14=
EXTT15=
EXTT16=
EXTT17=
PLAYORDER=
